<svg xmlns="http://www.w3.org/2000/svg" viewBox="0 0 1440 120">
    <defs>
        <linearGradient id="mew-footer-0" x1="0" x2="0" y1="1" y2="0">
            <stop stop-color="#2e9f3c" offset="0%"></stop>
            <stop stop-color="#5ea700" offset="100%"></stop>
        </linearGradient>
    </defs>
    <path style="transform:translate(0, 0px); opacity:1" fill="url(#mew-footer-0)" d="M0,12L80,10C160,8,320,4,480,10C640,16,800,32,960,44C1120,56,1280,64,1440,56C1600,48,1760,24,1920,20C2080,16,2240,32,2400,42C2560,52,2720,56,2880,56C3040,56,3200,52,3360,54C3520,56,3680,64,3840,70C4000,76,4160,80,4320,72C4480,64,4640,44,4800,40C4960,36,5120,48,5280,46C5440,44,5600,28,5760,30C5920,32,6080,52,6240,62C6400,72,6560,72,6720,64C6880,56,7040,40,7200,34C7360,28,7520,32,7680,44C7840,56,8000,76,8160,86C8320,96,8480,96,8640,90C8800,84,8960,72,9120,56C9280,40,9440,20,9600,24C9760,28,9920,56,10080,58C10240,60,10400,36,10560,38C10720,40,10880,68,11040,70C11200,72,11360,48,11440,36L11520,24L11520,120L11440,120C11360,120,11200,120,11040,120C10880,120,10720,120,10560,120C10400,120,10240,120,10080,120C9920,120,9760,120,9600,120C9440,120,9280,120,9120,120C8960,120,8800,120,8640,120C8480,120,8320,120,8160,120C8000,120,7840,120,7680,120C7520,120,7360,120,7200,120C7040,120,6880,120,6720,120C6560,120,6400,120,6240,120C6080,120,5920,120,5760,120C5600,120,5440,120,5280,120C5120,120,4960,120,4800,120C4640,120,4480,120,4320,120C4160,120,4000,120,3840,120C3680,120,3520,120,3360,120C3200,120,3040,120,2880,120C2720,120,2560,120,2400,120C2240,120,2080,120,1920,120C1760,120,1600,120,1440,120C1280,120,1120,120,960,120C800,120,640,120,480,120C320,120,160,120,80,120L0,120Z"></path>
    <defs>
        <linearGradient id="mew-footer-1" x1="0" x2="0" y1="1" y2="0">
            <stop stop-color="#fff" offset="0%"></stop>
            <stop stop-color="#fff" offset="100%"></stop>
        </linearGradient>
    </defs>
    <path style="transform:translate(0, 50px); opacity:1" fill="url(#mew-footer-1)" d="M0,36L80,34C160,32,320,28,480,32C640,36,800,48,960,50C1120,52,1280,44,1440,38C1600,32,1760,28,1920,24C2080,20,2240,16,2400,24C2560,32,2720,52,2880,52C3040,52,3200,32,3360,26C3520,20,3680,28,3840,44C4000,60,4160,84,4320,88C4480,92,4640,76,4800,74C4960,72,5120,84,5280,90C5440,96,5600,96,5760,84C5920,72,6080,48,6240,50C6400,52,6560,80,6720,94C6880,108,7040,108,7200,106C7360,104,7520,100,7680,82C7840,64,8000,32,8160,24C8320,16,8480,32,8640,38C8800,44,8960,40,9120,44C9280,48,9440,60,9600,58C9760,56,9920,40,10080,28C10240,16,10400,8,10560,14C10720,20,10880,40,11040,40C11200,40,11360,20,11440,10L11520,0L11520,120L11440,120C11360,120,11200,120,11040,120C10880,120,10720,120,10560,120C10400,120,10240,120,10080,120C9920,120,9760,120,9600,120C9440,120,9280,120,9120,120C8960,120,8800,120,8640,120C8480,120,8320,120,8160,120C8000,120,7840,120,7680,120C7520,120,7360,120,7200,120C7040,120,6880,120,6720,120C6560,120,6400,120,6240,120C6080,120,5920,120,5760,120C5600,120,5440,120,5280,120C5120,120,4960,120,4800,120C4640,120,4480,120,4320,120C4160,120,4000,120,3840,120C3680,120,3520,120,3360,120C3200,120,3040,120,2880,120C2720,120,2560,120,2400,120C2240,120,2080,120,1920,120C1760,120,1600,120,1440,120C1280,120,1120,120,960,120C800,120,640,120,480,120C320,120,160,120,80,120L0,120Z"></path>
</svg>