<svg xmlns="http://www.w3.org/2000/svg" style="transform:rotate(180deg); transition: 0.3s" viewBox="0 0 1440 80">
    <defs>
        <linearGradient id="mew-poli-svg" x1="0" x2="0" y1="1" y2="0">
            <stop stop-color="#f9f9f9" offset="0%"></stop>
            <stop stop-color="#f9f9f9" offset="100%"></stop>
        </linearGradient>
    </defs>
    <path style="transform:translate(0, 0px); opacity:1" fill="url(#mew-poli-svg)" d="M0,20L40,26.7C80,33,160,47,240,53.3C320,60,400,60,480,53.3C560,47,640,33,720,31.7C800,30,880,40,960,50C1040,60,1120,70,1200,61.7C1280,53,1360,27,1440,28.3C1520,30,1600,60,1680,65C1760,70,1840,50,1920,38.3C2000,27,2080,23,2160,31.7C2240,40,2320,60,2400,65C2480,70,2560,60,2640,51.7C2720,43,2800,37,2880,28.3C2960,20,3040,10,3120,5C3200,0,3280,0,3360,0C3440,0,3520,0,3600,6.7C3680,13,3760,27,3840,30C3920,33,4000,27,4080,28.3C4160,30,4240,40,4320,41.7C4400,43,4480,37,4560,28.3C4640,20,4720,10,4800,20C4880,30,4960,60,5040,70C5120,80,5200,70,5280,66.7C5360,63,5440,67,5520,58.3C5600,50,5680,30,5720,20L5760,10L5760,100L5720,100C5680,100,5600,100,5520,100C5440,100,5360,100,5280,100C5200,100,5120,100,5040,100C4960,100,4880,100,4800,100C4720,100,4640,100,4560,100C4480,100,4400,100,4320,100C4240,100,4160,100,4080,100C4000,100,3920,100,3840,100C3760,100,3680,100,3600,100C3520,100,3440,100,3360,100C3280,100,3200,100,3120,100C3040,100,2960,100,2880,100C2800,100,2720,100,2640,100C2560,100,2480,100,2400,100C2320,100,2240,100,2160,100C2080,100,2000,100,1920,100C1840,100,1760,100,1680,100C1600,100,1520,100,1440,100C1360,100,1280,100,1200,100C1120,100,1040,100,960,100C880,100,800,100,720,100C640,100,560,100,480,100C400,100,320,100,240,100C160,100,80,100,40,100L0,100Z"></path>
</svg>